<svg xmlns="http://www.w3.org/2000/svg" viewBox="0 0 89 89"><defs><style>.cls-1{fill:#fff;stroke-linecap:round;stroke-miterlimit:10;}.cls-2{fill:#ec3520;}</style></defs><title>Icon - Tremenz</title><g id="Calque_2"><g id="Calque_1-2"><rect class="cls-1" x="0.5" y="0.5" width="88" height="88" rx="12" ry="12"/><path class="cls-2" d="M71.23,18.87c-6.46,0-12.94.13-19.39-.12-5.9-.22-11.75-1.7-17.66-1.51-3,.1-5.59.34-7.57,2.74-2.77,3.37-6.43,9-7.25,13.36a1,1,0,0,0,.46,1.13c2.12,1.26,4.77-.62,7.07-.77a81,81,0,0,1,9.86.21A54.47,54.47,0,0,1,34.81,44L31.58,54.2a1,1,0,0,0,1,1.3h4.85L34.54,75.36a1,1,0,0,0,1.83.68l18-28a1,1,0,0,0-.84-1.54H49.1l6.1-13.07c3.24-.07,8.21.7,10.89-1.1,3.11-2.09,4.82-8.82,6.1-12.19A1,1,0,0,0,71.23,18.87Z"/></g></g></svg>